# xmcd CD database file
#
# Track frame offsets:
#	183
#	13383
#	30608
#
# Disc length: 602 seconds
#
# Revision: 0
# Processed by: cddbd v1.5PL3 Copyright (c) Steve Scherf et al.
# Submitted via: CDex 1.51
#
DISCID=1e025803
DTITLE=Dr. Hook - A Little Bit More (Single)
DYEAR=1992
DGENRE=Country
TTITLE0=A Little Bit More
TTITLE1=Sylvia's Mother
TTITLE2=If Not You
EXTD=YEAR: 1992
EXTT0=
EXTT1=
EXTT2=
PLAYORDER=
